<svg width="430" height="334" viewBox="0 0 430 334" fill="none" xmlns="http://www.w3.org/2000/svg">
<path d="M394.09 82.22C378.63 71.7 345.39 66.31 326.67 72.52C302.76 80.46 303.6 97.88 286.2 108.66C239.2 137.75 191.49 118.19 141.82 105.66C31.75 77.85 -37.18 183.76 70.92 248.87C135.92 288 272.42 316.59 287.79 212.87C294.44 168.03 270.45 164.62 326.19 154.87C348.19 151 464.13 129.89 394.09 82.22Z" fill="#0D98BA"/>
<path opacity="0.9" d="M394.09 82.22C378.63 71.7 345.39 66.31 326.67 72.52C302.76 80.46 303.6 97.88 286.2 108.66C239.2 137.75 191.49 118.19 141.82 105.66C31.75 77.85 -37.18 183.76 70.92 248.87C135.92 288 272.42 316.59 287.79 212.87C294.44 168.03 270.45 164.62 326.19 154.87C348.19 151 464.13 129.89 394.09 82.22Z" fill="white"/>
<path opacity="0.2" d="M206.042 236.415C189.1 242.997 170.587 244.407 152.843 240.468C135.099 236.528 118.922 227.415 106.358 214.282C93.793 201.148 85.4049 184.584 82.254 166.684C79.1032 148.783 81.3311 130.35 88.6561 113.716C95.9811 97.0814 108.074 82.9926 123.406 73.231C138.738 63.4694 156.62 58.4734 174.792 58.8747C192.963 59.276 210.607 65.0566 225.493 75.4855C240.379 85.9145 251.839 100.523 258.422 117.465C262.795 128.714 264.909 140.715 264.643 152.782C264.377 164.848 261.737 176.745 256.873 187.791C252.009 198.837 245.016 208.816 236.294 217.159C227.573 225.502 217.293 232.045 206.042 236.415Z" fill="#0D98BA"/>
<path opacity="0.1" d="M189.412 60.3749L117.332 224.075C116.222 223.235 115.122 222.365 114.042 221.485C107.075 215.722 101.009 208.95 96.0422 201.395L158.302 59.9949C168.617 58.3336 179.141 58.4621 189.412 60.3749Z" fill="white"/>
<path d="M97.1022 88.8449C109.348 73.882 125.755 62.8863 144.25 57.2484C162.745 51.6104 182.496 51.5834 201.006 57.1708C219.517 62.7581 235.954 73.7089 248.241 88.6382C260.527 103.568 268.111 121.805 270.032 141.044C271.954 160.284 268.127 179.661 259.036 196.725C249.945 213.79 235.998 227.775 218.958 236.913C201.919 246.051 182.553 249.931 163.308 248.062C144.063 246.194 125.805 238.66 110.842 226.415C90.7794 209.993 78.061 186.274 75.4843 160.475C72.9077 134.677 80.6837 108.911 97.1022 88.8449ZM242.222 207.605C253.463 193.865 260.376 177.1 262.089 159.431C263.802 141.761 260.237 123.981 251.845 108.337C243.453 92.6938 230.611 79.8902 214.942 71.5453C199.273 63.2004 181.482 59.6891 163.818 61.4552C146.154 63.2213 129.41 70.1857 115.704 81.4676C101.998 92.7495 91.9445 107.842 86.8158 124.838C81.687 141.833 81.7129 159.967 86.8902 176.948C92.0675 193.928 102.164 208.992 115.902 220.235C125.025 227.701 135.53 233.296 146.816 236.702C158.102 240.108 169.948 241.257 181.678 240.085C193.408 238.912 204.793 235.44 215.181 229.867C225.569 224.294 234.758 216.729 242.222 207.605Z" fill="#0D98BA"/>
<path d="M250.852 207.265C260.482 213.015 269.642 219.335 278.642 225.855C287.642 232.375 296.412 239.165 305.042 246.135C313.672 253.105 322.142 260.275 330.312 267.805C334.405 271.565 338.405 275.425 342.312 279.385C346.232 283.385 350.082 287.385 353.712 291.725C354.551 292.73 355.013 293.995 355.02 295.304C355.026 296.613 354.577 297.883 353.748 298.896C352.92 299.91 351.764 300.602 350.48 300.856C349.196 301.109 347.863 300.907 346.712 300.285C341.712 297.585 337.032 294.605 332.362 291.555C327.692 288.505 323.132 285.325 318.632 282.055C309.632 275.535 300.922 268.665 292.392 261.575C283.862 254.485 275.462 247.235 267.292 239.695C259.122 232.155 251.112 224.435 243.572 216.135C242.631 215.108 242.091 213.777 242.052 212.384C242.012 210.992 242.477 209.632 243.359 208.554C244.241 207.476 245.482 206.753 246.855 206.516C248.228 206.279 249.64 206.545 250.832 207.265H250.852Z" fill="#0D98BA"/>
<rect x="113.957" y="199.937" width="152" height="15" transform="rotate(-45 113.957 199.937)" fill="#0D98BA"/>
<rect x="124.563" y="92.4565" width="152" height="15" transform="rotate(45 124.563 92.4565)" fill="#0D98BA"/>
</svg>
